# xmcd
#
# Track frame offsets: 
#        150
#        24571
#        42013
#
# Disc length: 798 seconds
#
# Revision: 0
# Processed by: cddbd v1.5.1PL0 Copyright (c) Steve Scherf et al.
# Submitted via: ExactAudioCopy v0.95a5
#
DISCID=19031c03
DTITLE=Harve Mann - Santa Claus Shuffle (Promo CD-R Single)
DYEAR=1999
DGENRE=Christmas/Holiday
TTITLE0=Santa Claus Shuffle (Extended Dance Mix)
TTITLE1=Santa Claus Shuffle (Saint Nick's Mix)
TTITLE2=Santa Claus Shuffle (Radio Dance Mix)
EXTD=
EXTT0=
EXTT1=
EXTT2=
PLAYORDER=
